<svg width="18" height="18" viewBox="0 0 18 18" fill="none" xmlns="http://www.w3.org/2000/svg">
<path fill-rule="evenodd" clip-rule="evenodd" d="M14.0001 5.33331C14.0001 8.09474 11.7615 10.3333 9.00008 10.3333C6.23866 10.3333 4.00008 8.09474 4.00008 5.33331C4.00008 2.57189 6.23866 0.333313 9.00008 0.333313C11.7615 0.333313 14.0001 2.57189 14.0001 5.33331ZM12.3334 5.33331C12.3334 7.17426 10.841 8.66665 9.00008 8.66665C7.15913 8.66665 5.66675 7.17426 5.66675 5.33331C5.66675 3.49236 7.15913 1.99998 9.00008 1.99998C10.841 1.99998 12.3334 3.49236 12.3334 5.33331Z" fill="#797979"/>
<path fill-rule="evenodd" clip-rule="evenodd" d="M9.00014 11.1666C6.5542 11.1666 4.79066 11.674 3.52562 12.4348C2.25552 13.1985 1.54214 14.1854 1.14819 15.0484C0.816121 15.7759 0.967259 16.5173 1.40845 17.0455C1.82901 17.5489 2.48291 17.8333 3.16679 17.8333H14.8334C15.5173 17.8333 16.1712 17.5489 16.5917 17.0455C17.0329 16.5173 17.1841 15.7759 16.852 15.0484C16.4581 14.1854 15.7447 13.1986 14.4747 12.4348C13.2096 11.674 11.4461 11.1666 9.00014 11.1666ZM2.66437 15.7405C2.93784 15.1414 3.44016 14.431 4.38454 13.8631C5.33396 13.2921 6.78365 12.8333 9.00014 12.8333C11.2167 12.8333 12.6663 13.2921 13.6157 13.8631C14.5601 14.431 15.0624 15.1414 15.3358 15.7405C15.3681 15.8112 15.3667 15.8538 15.3635 15.8755C15.3598 15.9003 15.3476 15.9351 15.3126 15.977C15.2375 16.0669 15.07 16.1666 14.8334 16.1666H3.16679C2.93018 16.1666 2.76272 16.0669 2.68758 15.977C2.6526 15.9351 2.64043 15.9003 2.63673 15.8755C2.63349 15.8538 2.63208 15.8112 2.66437 15.7405Z" fill="#797979"/>
</svg>
